<?xml version="1.0" encoding="iso-8859-1"?>
<!-- Generator: Adobe Illustrator 19.0.0, SVG Export Plug-In . SVG Version: 6.00 Build 0)  -->
<svg version="1.1" id="Capa_1" xmlns="http://www.w3.org/2000/svg" xmlns:xlink="http://www.w3.org/1999/xlink" x="0px" y="0px"
	 viewBox="0 0 512 512" style="enable-background:new 0 0 512 512;" xml:space="preserve">
<path style="fill:#DCF4FF;" d="M512,476.534H0L72.469,65.539h367.062L512,476.534z"/>
<polygon style="fill:#CCEFFF;" points="457.952,170.011 439.532,65.539 256,65.539 183.531,476.534 443.922,476.534 "/>
<polygon style="fill:#FFAB15;" points="439.532,65.539 72.469,65.539 53.91,170.794 443.673,170.794 "/>
<polygon style="fill:#FF9400;" points="443.673,170.794 439.532,65.539 256,65.539 237.442,170.794 "/>
<polygon style="fill:#6E76E5;" points="283.947,266.024 344.093,266.024 351.163,225.927 291.017,225.927 "/>
<polygon style="fill:#7D8AFF;" points="193.729,266.024 253.874,266.024 260.944,225.927 200.799,225.927 "/>
<polygon style="fill:#6E76E5;" points="271.574,336.194 331.72,336.194 338.79,296.097 278.644,296.097 "/>
<g>
	<polygon style="fill:#7D8AFF;" points="181.356,336.194 241.501,336.194 248.572,296.097 188.426,296.097 	"/>
	<polygon style="fill:#7D8AFF;" points="91.138,336.194 151.283,336.194 158.353,296.097 98.208,296.097 	"/>
	<polygon style="fill:#7D8AFF;" points="168.983,406.364 229.128,406.364 236.199,366.267 176.053,366.267 	"/>
	<polygon style="fill:#7D8AFF;" points="78.765,406.364 138.91,406.364 145.98,366.267 85.835,366.267 	"/>
</g>
<rect x="336.163" y="35.466" style="fill:#CCEFFF;" width="30.073" height="90.218"/>
<rect x="130.666" y="35.466" style="fill:#DCF4FF;" width="30.073" height="90.218"/>
<g>
	<polygon style="fill:#6E76E5;" points="241.501,336.194 248.572,296.097 215.347,296.097 208.277,336.194 	"/>
	<polygon style="fill:#6E76E5;" points="229.128,406.364 236.199,366.267 202.974,366.267 195.904,406.364 	"/>
	<polygon style="fill:#6E76E5;" points="260.944,225.927 227.72,225.927 220.65,266.024 253.874,266.024 	"/>
</g>
<polygon style="fill:#86D6F2;" points="439.532,65.539 439.532,65.539 367.062,476.534 512,476.534 "/>
<g>
</g>
<g>
</g>
<g>
</g>
<g>
</g>
<g>
</g>
<g>
</g>
<g>
</g>
<g>
</g>
<g>
</g>
<g>
</g>
<g>
</g>
<g>
</g>
<g>
</g>
<g>
</g>
<g>
</g>
</svg>
