<svg height="512" viewBox="0 0 512 512" width="512" xmlns="http://www.w3.org/2000/svg" xmlns:xlink="http://www.w3.org/1999/xlink"><linearGradient id="a" gradientUnits="userSpaceOnUse" x1="2.902" x2="586.512" y1="545.097" y2="-38.513" data-name="New Gradient Swatch 1"><stop offset="0" stop-color="#003f8a"/><stop offset=".518" stop-color="#00d7df"/><stop offset="1" stop-color="#006df0"/></linearGradient><path d="m496 104h-16v-32a8 8 0 0 0 -8-8h-48a8 8 0 0 0 -8 8v32h-40v-48h8a8 8 0 0 0 8-8v-20a20.02 20.02 0 0 0 -20-20h-232a20.02 20.02 0 0 0 -20 20v20a8 8 0 0 0 8 8h8v48h-40v-32a8 8 0 0 0 -8-8h-48a8 8 0 0 0 -8 8v32h-16a8 8 0 0 0 -8 8v32a8 8 0 0 0 8 8h16v32a8 8 0 0 0 8 8h48a8 8 0 0 0 8-8v-32h40v192h-24.77a47.925 47.925 0 0 0 -46.56 36.36l-.43 1.7a8 8 0 0 0 7.76 9.94h64v64h-72.77a47.925 47.925 0 0 0 -46.56 36.36l-.43 1.7a8 8 0 0 0 7.76 9.94h464a8 8 0 0 0 7.76-9.94l-.43-1.7a47.925 47.925 0 0 0 -46.56-36.36h-72.77v-64h64a8 8 0 0 0 7.7-10.17l-.79-2.83a48.172 48.172 0 0 0 -46.21-35h-24.7v-192h40v32a8 8 0 0 0 8 8h48a8 8 0 0 0 8-8v-32h16a8 8 0 0 0 8-8v-32a8 8 0 0 0 -8-8zm-464 32h-8v-16h8zm48 40h-32v-96h32zm56-148a4 4 0 0 1 4-4h232a4 4 0 0 1 4 4v12h-240zm224 28v48h-8v-48zm-24 0v48h-160v-48zm-176 0v48h-8v-48zm288.77 416a31.96 31.96 0 0 1 27.72 16h-440.98a31.96 31.96 0 0 1 27.72-16zm-296.77-16v-64h8v64zm24 0v-64h160v64zm176 0v-64h8v64zm48.7-96a32.141 32.141 0 0 1 27.7 16h-344.89a31.96 31.96 0 0 1 27.72-16zm-248.7-16v-192h8v192zm24 0v-192h160v192zm176 0v-192h8v192zm64-208h-320v-16h320zm48 40h-32v-96h32zm24-40h-8v-16h8z" fill="url(#a)"/></svg>